<?xml version="1.0" standalone="no"?>
<!DOCTYPE svg PUBLIC "-//W3C//DTD SVG 20010904//EN"
 "http://www.w3.org/TR/2001/REC-SVG-20010904/DTD/svg10.dtd">
<svg version="1.0" xmlns="http://www.w3.org/2000/svg"
 width="259.000000pt" height="194.000000pt" viewBox="0 0 259.000000 194.000000"
 preserveAspectRatio="xMidYMid meet">

<g transform="translate(0.000000,194.000000) scale(0.100000,-0.100000)"
fill="#000000" stroke="none">
<path d="M1240 1852 c-41 -42 -100 -106 -130 -142 -30 -36 -57 -67 -60 -70
-16 -14 -80 -103 -128 -173 -180 -270 -315 -611 -367 -931 -8 -49 -16 -90 -17
-91 -32 -22 -121 -65 -126 -61 -9 9 22 185 60 339 l31 129 30 -6 c23 -5 28 -3
23 10 -3 8 -2 13 2 10 4 -2 18 29 31 70 41 132 128 323 205 449 l36 60 -21 16
c-20 15 -20 18 -6 45 8 16 35 55 58 86 98 129 110 148 104 158 -14 23 -36 6
-96 -74 -201 -267 -365 -614 -445 -941 -26 -109 -64 -328 -64 -374 0 -19 -7
-31 -22 -39 -48 -22 -166 -126 -245 -215 -46 -51 -83 -95 -83 -99 0 -5 56 -8
125 -8 l124 0 43 40 43 40 3 -26 c2 -14 -2 -32 -9 -40 -10 -12 6 -14 115 -14
119 0 129 2 164 25 46 31 52 31 52 0 l0 -25 305 0 305 0 0 95 0 96 -32 -5
c-18 -3 -78 -11 -133 -17 -55 -5 -126 -17 -159 -25 -32 -8 -60 -13 -62 -11
-10 9 9 35 29 41 78 22 204 46 275 52 l82 7 0 78 0 79 -72 0 c-67 0 -203 -18
-270 -35 -38 -10 -39 21 -1 36 41 15 210 39 281 39 l62 0 0 95 0 95 -37 0
c-44 0 -212 -17 -262 -26 -24 -5 -32 -3 -27 5 4 6 9 21 11 33 2 13 10 42 16
65 10 37 14 41 30 33 33 -18 44 -10 62 49 11 33 48 117 83 188 47 93 61 129
51 135 -45 27 -45 25 60 191 16 24 16 29 3 37 -8 5 -18 10 -22 10 -13 0 -122
-180 -188 -315 -64 -128 -160 -390 -160 -433 0 -14 -12 -21 -47 -30 -27 -6
-57 -14 -67 -18 -17 -7 -18 -4 -12 32 17 90 104 376 120 391 3 3 18 1 34 -5
l28 -10 67 132 c37 72 106 189 153 260 l85 129 -20 21 -21 22 54 65 c29 35 77
88 106 117 49 50 51 55 36 70 -15 15 -20 13 -67 -33 -86 -85 -289 -336 -289
-359 0 -2 -18 -31 -41 -65 -108 -162 -238 -481 -285 -703 l-18 -86 -51 -21
c-75 -31 -75 -31 -59 52 34 178 98 390 163 541 20 46 22 48 54 42 l33 -6 47
92 c71 143 166 282 280 411 69 77 69 78 52 103 -16 25 -15 26 21 67 20 23 50
54 67 68 27 23 29 29 18 43 -7 9 -16 16 -20 16 -4 0 -40 -35 -81 -78z m-382
-1504 c-2 -16 -17 -26 -58 -39 -68 -23 -72 -23 -68 -2 2 10 27 26 58 39 69 29
72 29 68 2z m-188 -93 c-7 -8 -18 -15 -24 -15 -6 0 -22 -9 -36 -20 -27 -21
-55 -27 -45 -10 4 6 1 18 -7 27 -7 9 -8 14 -3 11 6 -3 35 7 65 22 44 22 56 25
58 14 2 -8 -2 -21 -8 -29z m-150 -67 c0 -16 -18 -37 -58 -68 -73 -57 -72 -57
-72 -23 1 23 12 35 62 71 34 23 64 42 65 42 2 0 3 -10 3 -22z m320 -70 c0 -18
-14 -30 -55 -51 -30 -15 -57 -27 -60 -27 -3 0 -5 11 -5 25 0 20 10 29 53 49
65 31 67 31 67 4z"/>
<path d="M1330 310 l0 -310 65 0 64 0 3 122 3 123 68 3 67 3 0 -126 0 -125 70
0 70 0 0 310 0 310 -70 0 -70 0 0 -115 0 -115 -70 0 -70 0 0 115 0 115 -65 0
-65 0 0 -310z"/>
<path d="M1790 310 l0 -310 190 0 190 0 0 75 0 75 -120 0 -120 0 0 50 0 50
120 0 121 0 -3 67 -3 68 -118 3 -118 3 3 47 3 47 118 3 117 3 0 64 0 65 -190
0 -190 0 0 -310z"/>
<path d="M2216 358 c1 -145 3 -284 3 -310 l1 -48 65 0 65 0 0 125 0 125 120 0
120 0 0 70 0 70 -120 0 -120 0 0 50 0 50 120 0 120 0 0 65 0 65 -189 0 -189 0
4 -262z"/>
</g>
</svg>
